<svg id="Group_393" data-name="Group 393" xmlns="http://www.w3.org/2000/svg" xmlns:xlink="http://www.w3.org/1999/xlink" width="185.273" height="37" viewBox="0 0 185.273 37">
  <defs>
    <clipPath id="clip-path">
      <rect id="Rectangle_576" data-name="Rectangle 576" width="185.273" height="37" transform="translate(0 0)" fill="none"/>
    </clipPath>
  </defs>
  <g id="Group_392" data-name="Group 392" transform="translate(0 0)" clip-path="url(#clip-path)">
    <g id="Group_394" data-name="Group 394">
      <path id="Path_2269" data-name="Path 2269" d="M208.176,32.067V28.419h6.344v10.23c0,3.45-1.705,5.155-5.155,5.155h-2.26c-3.45,0-5.154-1.7-5.154-5.155V20.727c0-3.45,1.7-5.155,5.154-5.155h2.22c3.45,0,5.115,1.705,5.115,5.115v4.48h-4.163V20.925c0-1.11-.515-1.626-1.585-1.626h-.873a1.417,1.417,0,0,0-1.626,1.626V38.451a1.416,1.416,0,0,0,1.626,1.625h.952a1.416,1.416,0,0,0,1.626-1.625V32.067Z" transform="translate(-136.593 -10.532)" fill="#fff"/>
      <path id="Path_2270" data-name="Path 2270" d="M253.155,16.308V40.217h4.679v3.846h-8.921V16.308Z" transform="translate(-168.356 -11.03)" fill="#fff"/>
      <path id="Path_2271" data-name="Path 2271" d="M290.03,43.8h-2.26c-3.45,0-5.154-1.7-5.154-5.155V20.728c0-3.45,1.7-5.155,5.154-5.155h2.26c3.451,0,5.155,1.7,5.155,5.155V38.65c0,3.45-1.7,5.155-5.155,5.155m-.673-24.5h-.872a1.417,1.417,0,0,0-1.626,1.626V38.451a1.416,1.416,0,0,0,1.626,1.625h.872c1.071,0,1.586-.515,1.586-1.625V20.926c0-1.11-.516-1.626-1.586-1.626" transform="translate(-191.152 -10.533)" fill="#fff"/>
      <path id="Path_2272" data-name="Path 2272" d="M343.539,34.626v9.437H339.3V34.706c0-1.229-.555-1.784-1.784-1.784h-2.175V44.063h-4.243V16.308h7.25c3.45,0,5.155,1.7,5.155,5.155V26.7c0,2.458-.872,3.648-2.418,4.283,1.744.476,2.458,1.546,2.458,3.648m-5.868-14.552h-2.334v9.159h2.175c1.189,0,1.745-.555,1.745-1.7V21.661a1.392,1.392,0,0,0-1.586-1.586" transform="translate(-223.941 -11.03)" fill="#fff"/>
      <rect id="Rectangle_575" data-name="Rectangle 575" width="4.243" height="27.755" transform="translate(122.641 5.278)" fill="#fff"/>
      <path id="Path_2273" data-name="Path 2273" d="M409.484,43.8h-2.26c-3.45,0-5.154-1.7-5.154-5.155V20.728c0-3.45,1.7-5.155,5.154-5.155h2.26c3.45,0,5.155,1.7,5.155,5.155V38.65c0,3.45-1.706,5.155-5.155,5.155m-.673-24.5h-.873a1.417,1.417,0,0,0-1.626,1.626V38.451a1.416,1.416,0,0,0,1.626,1.625h.873c1.071,0,1.585-.515,1.585-1.625V20.926c0-1.11-.515-1.626-1.585-1.626" transform="translate(-271.947 -10.533)" fill="#fff"/>
      <path id="Path_2274" data-name="Path 2274" d="M462.6,39.146c0,3.45-1.7,5.155-5.154,5.155h-2.062c-3.45,0-5.154-1.7-5.154-5.155V16.308h4.242v22.64a1.416,1.416,0,0,0,1.626,1.625h.674c1.071,0,1.586-.515,1.586-1.625V16.308H462.6Z" transform="translate(-304.517 -11.03)" fill="#fff"/>
      <path id="Path_2275" data-name="Path 2275" d="M510.679,34.128v4.52c0,3.45-1.7,5.155-5.154,5.155h-1.863c-3.449,0-5.115-1.7-5.115-5.115V32.82h4.124v5.71c0,1.071.516,1.586,1.626,1.586h.555c1.11,0,1.626-.516,1.626-1.586V34.723a2.442,2.442,0,0,0-1.189-2.26L501,29.331a5.1,5.1,0,0,1-2.459-4.8V20.727c0-3.45,1.705-5.155,5.155-5.155h1.785q5.114,0,5.115,5.115v5.035h-4.163V20.845a1.392,1.392,0,0,0-1.586-1.586h-.516a1.391,1.391,0,0,0-1.585,1.586v3.093a2.4,2.4,0,0,0,1.189,2.26l4.282,3.132a5.059,5.059,0,0,1,2.458,4.8" transform="translate(-337.2 -10.532)" fill="#fff"/>
      <path id="Path_2276" data-name="Path 2276" d="M545.887,17.185h-1.617v4.18h-.658v-4.18H542v-.617h3.886Z" transform="translate(-366.592 -11.206)" fill="#fff"/>
      <path id="Path_2277" data-name="Path 2277" d="M561.852,21.365h-.658V17.438l-1.521,3.406h-.727l-1.521-3.406v3.927h-.658v-4.8h.987l1.556,3.481,1.556-3.481h.987Z" transform="translate(-376.579 -11.206)" fill="#fff"/>
    </g>
    <path id="Path_2278" data-name="Path 2278" d="M38.068,5.721c-9.575,0-15.8,8.45-25.2,8.45-4.155,0-6.582-1.474-7.85-2.957a.246.246,0,0,1,.294-.382,10.689,10.689,0,0,0,4.356.952C19.6,11.785,26.18,0,39.152,0,47.283,0,51.583,3.221,52.7,9.1a106.271,106.271,0,0,0,2.9,12.629.757.757,0,0,1-.47.994l-1.821.5a.739.739,0,0,0-.534.7,25.324,25.324,0,0,1,.339,8.222c-.735,5.333-6.316,6.115-9.653,3.111-4.423-3.981-7.944-5.436-12.3-5.642-.633-.03-.678-.233-.294-.638A50.354,50.354,0,0,0,36.2,21.363c2.108-3.411,5.039-5.654,8.87-5.654a11.464,11.464,0,0,1,5.275,1.049.2.2,0,0,0,.239-.314,8.145,8.145,0,0,0-6.051-2.629c-5.145,0-8.537,2.328-12.028,7.266-5.888,8.327-8.519,10.882-16.731,10.882-7.188,0-12.5-3.238-14.556-6.8-.246-.426.015-.695.423-.432a19.7,19.7,0,0,0,10.237,2.92c5.767,0,9.816-1.91,11.953-4.475.223-.267.029-.66-.3-.56a24.06,24.06,0,0,1-6.676,1c-7.874,0-14.734-2.863-16.727-7.213-.263-.575-.126-.772.434-.5a23.58,23.58,0,0,0,10.277,2.1c14.915,0,15.36-12.382,33.945-10.223.214.025.424-.2.239-.314a12.139,12.139,0,0,0-6.956-1.736" transform="translate(0 0)" fill="#ffac27"/>
  </g>
</svg>
